<?xml version="1.0" standalone="no"?>
<!DOCTYPE svg PUBLIC "-//W3C//DTD SVG 20010904//EN"
"http://www.w3.org/TR/2001/REC-SVG-20010904/DTD/svg10.dtd">
<svg version="1.0" xmlns="http://www.w3.org/2000/svg"
width="512.000000pt" height="409.000000pt" viewBox="0 0 512.000000 409.000000"
preserveAspectRatio="xMidYMid meet">

<g transform="translate(0.000000,409.000000) scale(0.100000,-0.100000)"
fill="#000000" stroke="none">
<path d="M2444 4065 c-108 -27 -322 -114 -376 -152 -83 -57 -119 -134 -125
-268 -4 -80 -1 -118 16 -190 28 -115 89 -266 153 -380 86 -151 98 -177 98
-212 0 -43 -19 -79 -62 -119 -72 -68 -128 -83 -353 -94 -191 -9 -308 -25 -491
-66 -106 -24 -115 -24 -171 -10 -166 42 -230 41 -371 -5 -35 -12 -66 -19 -68
-16 -6 5 -25 79 -64 249 -16 68 -21 115 -18 155 6 57 40 185 56 211 6 8 45 17
103 22 117 11 184 31 237 70 50 36 72 76 78 144 13 133 -107 197 -311 166
-154 -23 -405 -110 -457 -158 -53 -49 -109 -208 -143 -408 -9 -51 -25 -111
-36 -135 -68 -139 -123 -466 -131 -770 -4 -137 -1 -143 96 -188 73 -34 121
-46 240 -61 58 -7 99 -18 117 -30 15 -11 58 -34 96 -51 200 -90 455 -103 673
-33 41 13 78 24 83 24 4 0 7 -27 7 -60 0 -207 130 -451 380 -714 85 -90 99
-109 110 -157 32 -129 5 -340 -72 -553 -59 -166 -63 -154 67 -198 171 -58 271
-73 480 -72 154 1 198 5 306 27 132 28 300 82 382 124 41 21 48 28 43 46 -33
114 -29 203 14 337 47 144 68 177 141 228 221 154 393 359 525 627 104 212
175 437 207 661 l13 89 45 -1 c65 -2 193 14 268 32 130 33 346 131 486 222 39
25 95 58 126 73 72 35 150 121 200 222 41 81 79 206 79 261 0 101 -214 405
-634 901 -123 146 -124 147 -149 139 -9 -3 -106 -9 -215 -13 -165 -7 -204 -12
-244 -29 -107 -47 -178 -148 -178 -252 1 -126 60 -177 176 -151 64 15 206 83
279 135 47 34 50 35 68 18 28 -25 54 -91 71 -181 17 -88 42 -428 32 -438 -3
-3 -24 -1 -46 6 -22 6 -68 14 -102 18 -116 10 -263 -45 -347 -131 l-42 -43
-57 20 c-82 29 -239 28 -348 -1 -110 -29 -229 -81 -340 -147 -51 -30 -99 -55
-106 -55 -40 0 -107 116 -108 187 0 23 18 149 40 280 85 504 73 651 -65 790
-87 86 -190 103 -361 58z"/>
</g>
</svg>
